<?xml version="1.0" encoding="utf-8"?>
<!-- Generator: Adobe Illustrator 19.1.0, SVG Export Plug-In . SVG Version: 6.00 Build 0)  -->
<svg version="1.1" id="Layer_1" xmlns="http://www.w3.org/2000/svg" xmlns:xlink="http://www.w3.org/1999/xlink" x="0px" y="0px"
	 viewBox="0 0 216 216" style="enable-background:new 0 0 216 216;" xml:space="preserve">
<circle class="outer" cx="108" cy="108" r="75.9"/>
<g>
	<path class="inner" d="M82.7,107.6l-2.1-4.6l11.8-8.7c6-4.2,10.1-6.9,12.1-8.1c3.3-1.8,6.3-3.2,8.8-4c1.6-0.5,3-0.7,4.2-0.7
		c1.4,0,2.6,0.6,3.7,1.7c1.1,1.1,1.6,2.7,1.6,4.7c0,2.2-0.2,4.4-0.7,6.8c-0.7,3.7-2.8,11.6-6.2,23.9c-3.4,12.3-5.5,20.4-6.3,24.2
		s-1.2,6.3-1.2,7.5c0,0.9,0.2,1.6,0.7,2.1s1,0.8,1.6,0.8c0.7,0,1.8-0.4,3.3-1.2c3.4-1.8,7.2-4.1,11.3-6.9l2.3,4.6
		c-4.5,3.2-9.7,6.7-15.4,10.4c-5.7,3.7-9.9,6-12.6,7c-1.7,0.6-3.4,0.9-5,0.9c-1.9,0-3.6-0.7-4.8-2.2c-1.3-1.5-1.9-3.7-1.9-6.7
		c0-2.4,0.3-4.9,0.8-7.5c0.6-3.4,2.1-9.6,4.5-18.4c4.8-18.2,7.2-28.9,7.2-32.1c0-0.7-0.2-1.3-0.6-1.7c-0.4-0.4-0.8-0.6-1.4-0.6
		C96.1,98.9,90.9,101.8,82.7,107.6z M109.2,55.7c0-3.8,1.2-6.9,3.5-9.2c2.3-2.4,5.2-3.6,8.5-3.6c2.9,0,5.2,0.9,6.9,2.6
		c1.7,1.7,2.6,4.1,2.6,6.9c0,4.1-1.1,7.3-3.4,9.8c-2.2,2.5-5.1,3.7-8.5,3.7c-3,0-5.4-0.9-7.1-2.7C110.1,61.6,109.2,59,109.2,55.7z"
		/>
</g>
</svg>
